<svg width="49" height="27" viewBox="0 0 49 27" fill="none" xmlns="http://www.w3.org/2000/svg">
<g clip-path="url(#clip0_2_4)">
<path d="M14.2787 10.3844H16.317V6.23201H14.2787C12.655 6.22963 11.0984 5.57265 9.9503 4.40509C8.80214 3.23753 8.15608 1.65466 8.15374 0.003479H4.07041C4.06632 5.72543 8.64714 10.3844 14.2787 10.3844Z" fill="white"/>
<path d="M49 4.15308H44.9167V7.34416C43.6757 6.61401 42.267 6.23034 40.8333 6.23202H36.75C35.591 6.23106 34.4451 6.48156 33.3889 6.96681C32.3326 7.45206 31.3904 8.16087 30.625 9.04593C29.8596 8.16087 28.9174 7.45206 27.8611 6.96681C26.8049 6.48156 25.659 6.23106 24.5 6.23202H20.4167V10.3844H24.4912C25.5741 10.3844 26.6127 10.8219 27.3785 11.6006C28.1443 12.3793 28.5745 13.4355 28.5745 14.5367H18.3634C17.5542 14.5378 16.7531 14.7017 16.0064 15.0191C15.2597 15.3364 14.5822 15.8009 14.0128 16.3857C13.4434 16.9705 12.9935 17.6642 12.689 18.4266C12.3845 19.1891 12.2313 20.0053 12.2384 20.8282C12.2441 21.5157 12.3638 22.1972 12.5923 22.8442H10.1934C9.65188 22.8442 9.13257 22.6255 8.74969 22.2361C8.3668 21.8468 8.15169 21.3187 8.15169 20.768V14.5194C8.14917 12.3218 7.28951 10.2149 5.76129 8.66096C4.23308 7.10704 2.16113 6.23302 0 6.23064V10.383C1.07807 10.3843 2.11162 10.8203 2.87393 11.5955C3.63624 12.3707 4.06506 13.4218 4.06632 14.518V20.7701C4.06884 22.4212 4.71496 24.004 5.86307 25.1715C7.01119 26.339 8.56764 26.9961 10.1913 26.9986H14.2747V25.3827C15.4205 26.4249 16.9044 27.0003 18.4417 26.9986H24.4912C25.6501 26.9997 26.796 26.7494 27.8522 26.2642C28.9084 25.7791 29.8507 25.0704 30.6162 24.1854C31.3816 25.0704 32.3239 25.7791 33.3801 26.2642C34.4363 26.7494 35.5822 26.9997 36.7412 26.9986H40.8245C42.9904 26.9986 45.0676 26.1237 46.5992 24.5663C48.1307 23.0088 48.9912 20.8965 48.9912 18.6939V17.6808L49 4.15308ZM24.4912 22.8463H18.4049C17.2943 22.8463 16.3531 21.9611 16.3197 20.8324C16.3118 20.5546 16.3587 20.2779 16.4578 20.0189C16.5568 19.7598 16.7058 19.5235 16.8962 19.324C17.0865 19.1245 17.3142 18.9659 17.5659 18.8574C17.8176 18.749 18.0881 18.6929 18.3614 18.6925H28.5758C28.576 19.2381 28.4705 19.7783 28.2653 20.2823C28.0601 20.7864 27.7592 21.2443 27.3799 21.6301C27.0005 22.0158 26.5502 22.3218 26.0545 22.5305C25.5589 22.7392 25.0276 22.8465 24.4912 22.8463ZM44.9146 18.6939C44.9146 19.7952 44.4844 20.8514 43.7186 21.6301C42.9529 22.4088 41.9143 22.8463 40.8313 22.8463H36.748C35.665 22.8463 34.6264 22.4088 33.8606 21.6301C33.0948 20.8514 32.6646 19.7952 32.6646 18.6939V14.5416C32.6646 13.4403 33.0948 12.3841 33.8606 11.6054C34.6264 10.8267 35.665 10.3892 36.748 10.3892H40.8313C41.9143 10.3892 42.9529 10.8267 43.7186 11.6054C44.4844 12.3841 44.9146 13.4403 44.9146 14.5416V18.6939Z" fill="white"/>
</g>
<defs>
<clipPath id="clip0_2_4">
<rect width="49" height="27" fill="white"/>
</clipPath>
</defs>
</svg>
